<svg width="27" height="27" xmlns="http://www.w3.org/2000/svg" preserveAspectRatio="xMidYMid meet">

 <g>
  <title>background</title>
  <rect fill="none" id="canvas_background" height="29" width="29" y="-1" x="-1"/>
 </g>
 <g>
  <title>Layer 1</title>
  <rect rx="24" id="svg_2" fill="#000000" height="27" width="27" y="0" x="0"/>
  <path stroke="null" id="svg_1" fill="white" d="m18.722483,15.417605c-0.87718,0 -1.699436,-0.371727 -2.44687,-0.976678l0.181485,-0.856484l0.006368,-0.033432c0.16477,-0.909815 0.675795,-2.435726 2.259813,-2.435726a2.15315,2.15315 0 0 1 2.151558,2.151558a2.154742,2.154742 0 0 1 -2.152354,2.150762zm0,-6.47935c-2.021016,0 -3.58991,1.312586 -4.226701,3.475288c-0.971107,-1.459844 -1.709784,-3.212612 -2.138822,-4.689967l-2.177826,0l0,5.661074a2.030568,2.030568 0 0 1 -2.027384,2.02818a2.029772,2.029772 0 0 1 -2.025792,-2.02818l0,-5.661074l-2.177826,0l0,5.661074c0,2.319512 1.886494,4.22113 4.203618,4.22113c2.318716,0 4.20521,-1.901618 4.20521,-4.22113l0,-0.947227c0.421078,0.88116 0.940859,1.774259 1.571282,2.56388l-1.33169,6.266821l2.226381,0l0.965535,-4.545097c0.846136,0.540477 1.818835,0.882752 2.934015,0.882752c2.387967,0 4.329384,-1.951765 4.329384,-4.33814c0,-2.387967 -1.941417,-4.329384 -4.329384,-4.329384z"/>
 </g>
</svg>